<svg xmlns="http://www.w3.org/2000/svg" xml:space="preserve" id="Layer_1" x="0" y="0" style="enable-background:new 0 0 487.4 125.8" version="1.1" viewBox="0 0 487.4 125.8"><style>.st0{fill:currentColor}</style><path d="m40.7-.3-4.4 8.7v.1c-1 2.2-3.2 3.8-5.7 3.8H15.7c-1.7 0-3 1.4-3 3.1v39.3H35l-4 8.7c0 .1-.1.2-.1.3-1 2.1-3.1 3.5-5.6 3.5h-9.6c-1.7 0-3 1.4-3 3v50.4c0 1.7-1.4 3.1-3.1 3.1H0V2.7c0-1.7 1.4-3 3.1-3h37.6zM104.1 11.2c-.7-6.4-6-11.3-12.5-11.4H66.5v124.1h12.2V70.6h8.4c2.4 0 4.4 2 4.4 4.4v48.9h12.6V69.8c0-2.5-1.7-4.6-4-5.3v-.4c2.3-.7 4-2.8 4-5.3V11.2zM78.8 58V12.5c0-.5 0-.9.1-1.3h8.3c2.4 0 4.4 2 4.4 4.4v38c0 2.4-2 4.4-4.4 4.4h-8.4zM153.8 4.4v118.8h-9.2c-1.7 0-3.1-1.4-3.1-3V-.2h7.2c.4 0 1.3.1 1.7.2 2 .5 3.4 2.3 3.4 4.4zM340.5 4.2v119h-9.2c-1.7 0-3.1-1.4-3.1-3V-.2h6.5c.4-.1.8-.2 1.2-.2.4 0 .8 0 1.1.2 2 .5 3.5 2.3 3.5 4.4zM306.3.8l-4.4 8.7s0 .1-.1.1c-1 2.2-3.2 3.8-5.7 3.8h-11.5c-1.7 0-3.1 1.4-3.1 3.1V125h-9.2c-1.7 0-3-1.4-3-3.1V13.4h-17.8V.8h54.8zM403.5-.2H389c-3.4 0-6.5 1.3-8.8 3.5-2.3 2.2-3.8 5.2-4 8.6v101.2c.3 6.8 5.9 12.3 12.8 12.4h14.5c7.1-.1 12.8-5.9 12.8-13.1V12.6c.1-7-5.7-12.8-12.8-12.8zm.1 108c0 4-3.2 7.3-7.3 7.3s-7.3-3.2-7.3-7.3V17.4c0-4 3.2-7.3 7.3-7.3s7.3 3.2 7.3 7.3v90.4zM487.4.3v124.3h-5.8c-1.2 0-2.3-.3-3.3-.7-1.2-.6-2.3-1.4-3.1-2.5-.6-.8-1.1-1.7-1.3-2.7l-.2-.8-14.2-62.5v69.2h-12.7V.3h6.3c1.2 0 2.3.2 3.3.7 1.2.6 2.3 1.4 3.1 2.5.6.8 1.1 1.8 1.4 2.8 0 .1.1.3.1.4l14.2 62.7V.3h12.2z" class="st0"/><path d="M487.4.3v124.3h-5.8c-1.2 0-2.3-.3-3.3-.7-1.2-.6-2.3-1.4-3.1-2.5-.6-.8-1.1-1.7-1.3-2.7l-.2-.8-14.2-62.5v69.2h-12.7V.3h6.3c1.2 0 2.3.2 3.3.7 1.2.6 2.3 1.4 3.1 2.5.6.8 1.1 1.8 1.4 2.8 0 .1.1.3.1.4l14.2 62.7V.3h12.2z" class="st0"/><path d="M487.4.3v124.3h-5.8c-1.2 0-2.3-.3-3.3-.7-1.2-.6-2.3-1.4-3.1-2.5-.6-.8-1.1-1.7-1.3-2.7l-.2-.8-14.2-62.5v69.2h-12.7V.3h6.3c1.2 0 2.3.2 3.3.7 1.2.6 2.3 1.4 3.1 2.5.6.8 1.1 1.8 1.4 2.8 0 .1.1.3.1.4l14.2 62.7V.3h12.2z" class="st0"/><path d="M487.4.3v124.3h-5.8c-1.2 0-2.3-.3-3.3-.7-1.2-.6-2.3-1.4-3.1-2.5-.6-.8-1.1-1.7-1.3-2.7l-.2-.8-14.2-62.5v69.2h-12.7V.3h6.3c1.2 0 2.3.2 3.3.7 1.2.6 2.3 1.4 3.1 2.5.6.8 1.1 1.8 1.4 2.8 0 .1.1.3.1.4l14.2 62.7V.3h12.2z" class="st0"/><path d="M487.4.3v124.3h-5.8c-1.2 0-2.3-.3-3.3-.7-1.2-.6-2.3-1.4-3.1-2.5-.6-.8-1.1-1.7-1.3-2.7l-.2-.8-14.2-62.5v69.2h-12.7V.3h6.3c1.2 0 2.3.2 3.3.7 1.2.6 2.3 1.4 3.1 2.5.6.8 1.1 1.8 1.4 2.8 0 .1.1.3.1.4l14.2 62.7V.3h12.2zM209.2 41.6l7.7-3.3.5-.2c1.9-.9 3.2-2.9 3.2-5.1V15c0-8.3-6.6-15-14.7-15h-6.5c-8.1 0-14.7 6.7-14.7 15v95.7c0 8.3 6.6 15 14.7 15h6.5c8.1 0 14.7-6.7 14.7-15V84.4l-7.6 3.3h-.1l-.8.3c-1.5.9-2.6 2.4-2.9 4.2V108c0 4-2.9 7.2-6.5 7.2s-6.5-3.2-6.5-7.2V18.2c0-4 2.9-7.2 6.5-7.2s6.5 3.2 6.5 7.2v23.4z" class="st0"/></svg>